# xmcd
#
# Track frame offsets: 
#        150
#        21798
#        39471
#        55508
#        77018
#        92162
#        117921
#        135816
#        159701
#        174070
#        196251
#        209510
#
# Disc length: 3178 seconds
#
# Revision: 0
# Processed by: cddbd v1.5.1PL0 Copyright (c) Steve Scherf et al.
# Submitted via: ExactAudioCopy v0.90b4
#
DISCID=8d0c680c
DTITLE=Rose City Kings - Up On It
DYEAR=2004
DGENRE=Blues
TTITLE0=Up On It
TTITLE1=Best Friend
TTITLE2=Breakdown Blues
TTITLE3=Double Belly Twist
TTITLE4=Big Trouble
TTITLE5=Dark Cloud
TTITLE6=Put a Wiggle in it
TTITLE7=Tequila Blues
TTITLE8=Baybelline
TTITLE9=Temptation
TTITLE10=Sweet Nothing
TTITLE11=One Thing
EXTD=
EXTT0=
EXTT1=
EXTT2=
EXTT3=
EXTT4=
EXTT5=
EXTT6=
EXTT7=
EXTT8=
EXTT9=
EXTT10=
EXTT11=
PLAYORDER=
